<?xml version="1.0" encoding="UTF-8" standalone="no"?>
<!-- Created with Inkscape (http://www.inkscape.org/) -->

<svg
   xmlns:dc="http://purl.org/dc/elements/1.1/"
   xmlns:cc="http://creativecommons.org/ns#"
   xmlns:rdf="http://www.w3.org/1999/02/22-rdf-syntax-ns#"
   xmlns:svg="http://www.w3.org/2000/svg"
   xmlns="http://www.w3.org/2000/svg"
   xmlns:sodipodi="http://sodipodi.sourceforge.net/DTD/sodipodi-0.dtd"
   xmlns:inkscape="http://www.inkscape.org/namespaces/inkscape"
   width="480"
   height="480"
   id="svg2"
   version="1.1"
   inkscape:version="0.48.5 r10040"
   sodipodi:docname="0.svg">
  <defs
     id="defs4" />
  <sodipodi:namedview
     id="base"
     pagecolor="#ffffff"
     bordercolor="#666666"
     borderopacity="1.0"
     inkscape:pageopacity="0.0"
     inkscape:pageshadow="2"
     inkscape:zoom="1.4"
     inkscape:cx="199.76704"
     inkscape:cy="235.41143"
     inkscape:document-units="px"
     inkscape:current-layer="layer1"
     showgrid="false"
     inkscape:window-width="1366"
     inkscape:window-height="705"
     inkscape:window-x="-8"
     inkscape:window-y="-8"
     inkscape:window-maximized="1"
     fit-margin-top="0"
     fit-margin-left="0"
     fit-margin-right="0"
     fit-margin-bottom="0"
     inkscape:snap-object-midpoints="false"
     inkscape:snap-center="false"
     inkscape:snap-bbox="false"
     inkscape:bbox-nodes="true"
     inkscape:snap-bbox-edge-midpoints="true"
     inkscape:snap-bbox-midpoints="true"
     inkscape:bbox-paths="true"
     inkscape:object-paths="false"
     inkscape:snap-intersection-paths="true"
     inkscape:object-nodes="false"
     inkscape:snap-smooth-nodes="false"
     inkscape:snap-global="true"
     inkscape:snap-nodes="false" />
  <metadata
     id="metadata7">
    <rdf:RDF>
      <cc:Work
         rdf:about="">
        <dc:format>image/svg+xml</dc:format>
        <dc:type
           rdf:resource="http://purl.org/dc/dcmitype/StillImage" />
      </cc:Work>
    </rdf:RDF>
  </metadata>
  <g
     inkscape:label="Layer 1"
     inkscape:groupmode="layer"
     id="layer1"
     transform="translate(-364.73943,-527.08977)">
    <flowRoot
       xml:space="preserve"
       id="flowRoot5949"
       style="font-size:50px;font-style:normal;font-variant:normal;font-weight:bold;font-stretch:normal;text-align:start;line-height:125%;letter-spacing:0px;word-spacing:0px;writing-mode:lr-tb;text-anchor:start;fill:#000000;fill-opacity:1;stroke:none;font-family:Swis721 BT;-inkscape-font-specification:'Swis721 BT, Bold'"
       transform="translate(-23.647573,75.330593)"><flowRegion
         id="flowRegion5951"><rect
           id="rect5953"
           width="275.71429"
           height="228.57143"
           x="118.57143"
           y="193.79076" /></flowRegion><flowPara
         id="flowPara5955" /></flowRoot>    <path
       style="fill:#aeffff;fill-opacity:1;stroke:none"
       id="path6027-6"
       r="17.5"
       cy="184.81883"
       cx="403.37827"
       d=""
       inkscape:connector-curvature="0" />
    <path
       style="fill:#aeffff;fill-opacity:1;stroke:none"
       id="path6027-1"
       r="17.5"
       cy="184.81883"
       cx="403.37827"
       d=""
       inkscape:connector-curvature="0" />
    <path
       style="fill:#aeffff;fill-opacity:1;stroke:none"
       id="path6027-2"
       r="17.5"
       cy="184.81883"
       cx="403.37827"
       d=""
       inkscape:connector-curvature="0" />
    <path
       style="fill:#aeffff;fill-opacity:1;stroke:none"
       id="path6027-9"
       r="17.5"
       cy="184.81883"
       cx="403.37827"
       d=""
       inkscape:connector-curvature="0" />
    <path
       style="fill:#aeffff;fill-opacity:1;stroke:none"
       id="path6027-8"
       r="17.5"
       cy="184.81883"
       cx="403.37827"
       d=""
       inkscape:connector-curvature="0" />
    <path
       inkscape:connector-curvature="0"
       style="fill:#0038a8;fill-opacity:1;stroke:none"
       d="m 591.72602,527.08984 a 240.46555,240.52004 0 0 0 -94.67598,25.49873 14.706599,14.386713 0 0 1 4.53429,10.35321 14.706599,14.386713 0 0 1 -14.69111,14.37694 14.706599,14.386713 0 0 1 -14.19233,-10.53405 240.46555,240.52004 0 0 0 -67.51558,66.95676 14.706599,14.386713 0 0 1 11.06367,13.87962 14.706599,14.386713 0 0 1 -14.69111,14.42216 14.706599,14.386713 0 0 1 -10.42886,-4.24979 240.46555,240.52004 0 0 0 -26.38958,98.24243 14.706599,14.386713 0 0 1 5.21444,-0.90421 14.706599,14.386713 0 0 1 14.6911,14.37694 14.706599,14.386713 0 0 1 -14.6911,14.37694 14.706599,14.386713 0 0 1 -4.89703,-0.81379 240.46555,240.52004 0 0 0 18.4999,78.12376 14.706599,14.386714 0 0 1 10.5649,-4.43063 14.706599,14.386714 0 0 1 14.73644,14.42215 14.706599,14.386714 0 0 1 -13.19478,14.28652 240.46555,240.52004 0 0 0 73.45551,79.97738 14.706599,14.386714 0 0 1 14.55507,-12.4781 14.706599,14.386714 0 0 1 14.73644,14.37694 14.706599,14.386714 0 0 1 -6.52938,11.93558 240.46555,240.52004 0 0 0 96.67108,27.80447 14.706599,14.386715 0 0 1 -0.18137,-2.2606 14.706599,14.386715 0 0 1 14.6911,-14.37688 14.706599,14.386715 0 0 1 14.73644,14.37688 14.706599,14.386715 0 0 1 -0.18137,2.0797 240.46555,240.52004 0 0 0 91.32062,-23.55463 14.706599,14.386715 0 0 1 -2.90195,-8.49957 14.706599,14.386715 0 0 1 14.6911,-14.42215 14.706599,14.386715 0 0 1 13.55753,8.77084 240.46555,240.52004 0 0 0 70.78028,-69.57897 14.706599,14.386716 0 0 1 -9.02324,-13.24668 14.706599,14.386716 0 0 1 14.6911,-14.37694 14.706599,14.386716 0 0 1 8.75118,2.84826 240.46555,240.52004 0 0 0 24.66654,-87.03023 14.706599,14.386716 0 0 1 -1.17891,0 14.706599,14.386716 0 0 1 -14.6911,-14.37694 14.706599,14.386716 0 0 1 14.6911,-14.37694 14.706599,14.386716 0 0 1 1.76837,0.13556 240.46555,240.52004 0 0 0 -16.77687,-80.29386 14.706599,14.386716 0 0 1 -7.88967,2.21532 14.706599,14.386716 0 0 1 -14.6911,-14.37694 14.706599,14.386716 0 0 1 10.5649,-13.83442 240.46555,240.52004 0 0 0 -69.23862,-79.29923 14.706599,14.386717 0 0 1 -11.69847,5.74174 14.706599,14.386717 0 0 1 -14.6911,-14.42215 14.706599,14.386717 0 0 1 1.9044,-7.05284 240.46555,240.52004 0 0 0 -102.2936,-30.51709 14.706599,14.386717 0 0 1 0.54412,3.97852 14.706599,14.386717 0 0 1 -14.69111,14.37694 14.706599,14.386717 0 0 1 -14.6911,-14.37694 14.706599,14.386717 0 0 1 0.6348,-4.24979 z"
       id="path5957" />
    <path
       inkscape:connector-curvature="0"
       style="fill:#ffffff;fill-opacity:1;stroke:none"
       d="M 784.7905,764.48362 A 178.58014,174.69578 0 0 1 606.21036,939.17941 178.58014,174.69578 0 0 1 427.63022,764.48362 178.58014,174.69578 0 0 1 606.21036,589.78783 178.58014,174.69578 0 0 1 784.7905,764.48362 z"
       id="path6190" />
    <path
       inkscape:connector-curvature="0"
       style="fill:#fcd116;fill-opacity:1;stroke:none"
       d="M 740.07043,767.12605 A 134.76048,134.17811 0 0 1 605.30995,901.30416 134.76048,134.17811 0 0 1 470.54946,767.12605 134.76048,134.17811 0 0 1 605.30995,632.94795 134.76048,134.17811 0 0 1 740.07043,767.12605 z"
       id="path6173-5" />
    <path
       inkscape:connector-curvature="0"
       style="fill:#ffffff;fill-opacity:1;stroke:none"
       d="M 716.3598,766.24522 A 110.7497,111.86403 0 0 1 605.61009,878.10925 110.7497,111.86403 0 0 1 494.86039,766.24522 110.7497,111.86403 0 0 1 605.61009,654.3812 110.7497,111.86403 0 0 1 716.3598,766.24522 z"
       id="path6173" />
    <path
       inkscape:connector-curvature="0"
       style="fill:none;stroke:none"
       d="M 500.99806,922.25833 A 191.62787,188.86513 0 0 1 422.01153,710.19341 191.62787,188.86513 0 0 1 605.79126,575.19831 191.62787,188.86513 0 0 1 789.41039,710.40554 191.62787,188.86513 0 0 1 710.17181,922.3791 L 605.679,764.06341 z"
       id="path6200" />
    <g
       style="font-size:37.5px;font-style:normal;font-variant:normal;font-weight:normal;font-stretch:normal;text-align:start;line-height:125%;letter-spacing:0.5px;word-spacing:0px;writing-mode:lr-tb;text-anchor:start;fill:#ffffff;fill-opacity:1;stroke:none;font-family:Swis721 Md BT;-inkscape-font-specification:Swis721 Md BT"
       id="text6217"
       transform="matrix(0.84037712,0,0,0.82209783,266.15775,382.90859)">
      <path
         inkscape:connector-curvature="0"
         d="m 261.18006,676.42992 -3.6337,-2.6308 13.42245,-18.53933 -10.78247,-7.80649 2.39456,-3.30742 14.41618,10.4373 -15.81702,21.84674 z"
         style="font-size:37.5px;font-style:normal;font-variant:normal;font-weight:normal;font-stretch:normal;letter-spacing:0.5px;fill:#ffffff;fill-opacity:1;font-family:Swis721 Md BT;-inkscape-font-specification:Swis721 Md BT"
         id="path6390" />
      <path
         inkscape:connector-curvature="0"
         d="m 237.88187,652.3614 10.78074,-6.06269 -5.98522,-5.33834 -4.79552,11.40103 z m -1.15053,5.05864 -3.77151,-3.36389 10.56022,-26.72207 3.5802,3.19326 -2.83986,6.81513 7.82997,6.98372 6.4064,-3.63406 3.4982,3.12013 -25.26362,13.60778 z"
         style="font-size:37.5px;font-style:normal;font-variant:normal;font-weight:normal;font-stretch:normal;letter-spacing:0.5px;fill:#ffffff;fill-opacity:1;font-family:Swis721 Md BT;-inkscape-font-specification:Swis721 Md BT"
         id="path6392" />
      <path
         inkscape:connector-curvature="0"
         d="m 221.08173,642.83723 -3.16119,-3.55971 6.74698,-22.79075 -15.08768,13.3986 -2.88155,-3.24481 20.16711,-17.90939 3.13687,3.53233 -6.69835,22.84552 15.08768,-13.39861 2.85724,3.21743 -20.16711,17.90939 z"
         style="font-size:37.5px;font-style:normal;font-variant:normal;font-weight:normal;font-stretch:normal;letter-spacing:0.5px;fill:#ffffff;fill-opacity:1;font-family:Swis721 Md BT;-inkscape-font-specification:Swis721 Md BT"
         id="path6394" />
      <path
         inkscape:connector-curvature="0"
         d="m 201.4733,613.34663 15.76366,-10.91053 -3.13665,-4.53186 q -2.28214,-3.29727 -5.32782,-3.48293 -3.0561,-0.2007 -7.19651,2.665 -3.764,2.60519 -4.63753,5.52572 -0.87352,2.92052 1.22105,5.94678 l 3.3138,4.78782 z m -0.63531,5.80644 -5.92941,-8.56688 q -3.37632,-4.87815 -2.29418,-9.23465 1.05667,-4.36113 6.55212,-8.1647 5.37501,-3.72021 10.12066,-3.04103 4.74565,0.67919 8.22618,5.70791 l 5.50216,7.94958 -22.17753,15.34977 z"
         style="font-size:37.5px;font-style:normal;font-variant:normal;font-weight:normal;font-stretch:normal;letter-spacing:0.5px;fill:#ffffff;fill-opacity:1;font-family:Swis721 Md BT;-inkscape-font-specification:Swis721 Md BT"
         id="path6396" />
      <path
         inkscape:connector-curvature="0"
         d="m 179.32734,585.50501 -9.16904,-18.97638 3.56116,-1.72068 3.6007,7.45206 20.72398,-10.01346 1.94374,4.02279 -20.72398,10.01346 3.6246,7.50152 -3.56116,1.72069 z"
         style="font-size:37.5px;font-style:normal;font-variant:normal;font-weight:normal;font-stretch:normal;letter-spacing:0.5px;fill:#ffffff;fill-opacity:1;font-family:Swis721 Md BT;-inkscape-font-specification:Swis721 Md BT"
         id="path6398" />
      <path
         inkscape:connector-curvature="0"
         d="m 169.69158,554.97613 7.80548,-2.80645 -2.17453,-6.04795 q -0.95407,-2.65352 -2.2996,-3.47343 -1.34554,-0.81991 -3.43045,-0.0703 -2.03321,0.73104 -2.53755,2.19661 -0.51053,1.44834 0.42495,4.05017 l 2.2117,6.15134 z m -2.07369,5.435 -3.93398,-10.94146 q -0.17966,-0.49969 -0.36203,-1.11515 -0.0509,-0.19573 -0.0633,-0.23019 -1.20807,-3.35998 -0.0114,-5.93063 1.19047,-2.58788 4.48152,-3.77118 2.15383,-0.7744 4.02809,-0.37809 1.87427,0.3963 3.17199,1.89498 -0.0579,-1.73041 0.78603,-2.79271 0.82049,-1.07333 3.20664,-2.06748 l 3.55513,-1.53119 0.0345,-0.0124 q 2.34066,-0.95833 2.51684,-2.09187 l 0.74091,-0.2664 1.6975,4.7212 q -0.40056,0.45535 -1.0168,0.85204 -0.63966,0.38566 -2.09672,0.98737 l -2.98303,1.22821 q -2.39719,1.01757 -2.88488,2.20474 -0.49388,1.16994 0.26814,3.28931 l 0.29117,0.80984 2.00726,5.58272 10.44177,-3.75432 1.50545,4.18705 -25.38074,9.1256 z"
         style="font-size:37.5px;font-style:normal;font-variant:normal;font-weight:normal;font-stretch:normal;letter-spacing:0.5px;fill:#ffffff;fill-opacity:1;font-family:Swis721 Md BT;-inkscape-font-specification:Swis721 Md BT"
         id="path6400" />
      <path
         inkscape:connector-curvature="0"
         d="m 160.47073,522.50602 12.31159,1.18545 -1.86105,-7.8011 -10.45054,6.61565 z m -3.83495,3.49381 -1.17272,-4.91576 23.93652,-15.89435 1.11323,4.66641 -6.22502,3.96988 2.43466,10.20555 7.33401,0.67873 1.08774,4.55955 -28.50842,-3.27001 z"
         style="font-size:37.5px;font-style:normal;font-variant:normal;font-weight:normal;font-stretch:normal;letter-spacing:0.5px;fill:#ffffff;fill-opacity:1;font-family:Swis721 Md BT;-inkscape-font-specification:Swis721 Md BT"
         id="path6402" />
      <path
         inkscape:connector-curvature="0"
         d="m 152.12696,505.13385 -0.56753,-4.72679 18.53694,-14.87691 -20.03433,2.40544 -0.51733,-4.30865 26.77911,-3.21526 0.56316,4.69043 -18.5282,14.94963 20.03433,-2.40544 0.51296,4.27229 -26.77911,3.21526 z"
         style="font-size:37.5px;font-style:normal;font-variant:normal;font-weight:normal;font-stretch:normal;letter-spacing:0.5px;fill:#ffffff;fill-opacity:1;font-family:Swis721 Md BT;-inkscape-font-specification:Swis721 Md BT"
         id="path6404" />
      <path
         inkscape:connector-curvature="0"
         d="m 156.82311,454.99995 0.0392,4.26621 q -2.28807,0.1577 -3.5803,1.75707 -1.29232,1.58106 -1.27931,4.23606 0.0108,2.19724 1.04297,3.5838 1.0322,1.38656 2.55195,1.37911 1.53807,-0.008 2.52082,-1.23917 0.96443,-1.23155 1.9523,-5.1549 1.47229,-5.95821 3.22119,-7.77955 1.74882,-1.83964 4.8982,-1.85508 3.80855,-0.0187 6.14796,2.82636 2.321,2.82679 2.34433,7.58748 0.0246,5.01703 -2.37865,7.83035 -2.40332,2.79501 -6.9433,3.01868 l -0.0214,-4.35786 q 2.61748,-0.19593 4.05529,-1.97912 1.43772,-1.8015 1.42274,-4.85933 -0.0113,-2.3071 -1.13541,-3.76645 -1.1242,-1.47766 -2.75382,-1.46968 -0.64086,0.003 -1.44445,0.42823 -0.82199,0.40686 -1.40478,1.05059 -0.96525,1.06676 -1.84451,4.73322 -0.19755,0.78833 -0.28713,1.19161 -1.16801,4.52848 -2.98989,6.40511 -1.84019,1.87671 -5.00788,1.89223 -3.3691,0.0165 -5.48815,-2.70141 -2.13746,-2.73614 -2.15971,-7.2771 -0.0216,-4.41279 2.29095,-7.04256 2.29418,-2.64799 6.23072,-2.7039 z"
         style="font-size:37.5px;font-style:normal;font-variant:normal;font-weight:normal;font-stretch:normal;letter-spacing:0.5px;fill:#ffffff;fill-opacity:1;font-family:Swis721 Md BT;-inkscape-font-specification:Swis721 Md BT"
         id="path6406" />
      <path
         inkscape:connector-curvature="0"
         d="m 153.74841,442.2913 8.46928,0.87543 0.59868,-5.7919 q 0.28051,-2.71381 -0.58441,-3.96292 -0.86304,-1.26733 -3.1033,-1.4989 -2.20383,-0.2278 -3.3424,0.81423 -1.15677,1.04014 -1.41281,3.51717 l -0.62504,6.04689 z m -4.34072,4.0613 1.05616,-10.21777 q 0.25604,-2.47704 0.61519,-3.63644 0.34281,-1.1795 0.9689,-2.07201 1.17368,-1.7379 3.12935,-2.49297 1.93746,-0.75696 4.52378,-0.48962 2.13098,0.22027 3.74388,1.17853 1.59469,0.95639 2.55134,2.56473 0.64133,1.09715 0.82797,2.49705 0.18665,1.3999 -0.0619,3.80408 l -0.6288,6.08331 10.56383,1.09194 -0.46125,4.4623 -26.82849,-2.77313 z"
         style="font-size:37.5px;font-style:normal;font-variant:normal;font-weight:normal;font-stretch:normal;letter-spacing:0.5px;fill:#ffffff;fill-opacity:1;font-family:Swis721 Md BT;-inkscape-font-specification:Swis721 Md BT"
         id="path6408" />
      <path
         inkscape:connector-curvature="0"
         d="m 158.39167,407.82565 q -0.86211,3.84122 1.31476,6.60047 2.159,2.75525 6.91139,3.82185 4.73452,1.06259 7.88175,-0.50176 3.14723,-1.56434 4.00933,-5.40555 0.8581,-3.82335 -1.31877,-6.58261 -2.17687,-2.75925 -6.91139,-3.82184 -4.75238,-1.0666 -7.88175,0.50175 -3.14322,1.54648 -4.00532,5.38769 z m -3.80549,-0.85408 q 1.31521,-5.86008 5.78921,-8.40274 4.45613,-2.54668 10.90579,-1.09915 6.44967,1.44753 9.40797,5.65826 2.94044,4.20671 1.62524,10.0668 -1.31922,5.87795 -5.77535,8.42462 -4.45613,2.54667 -10.92366,1.09513 -6.46754,-1.45153 -9.40797,-5.65825 -2.94044,-4.20672 -1.62123,-10.08467 z"
         style="font-size:37.5px;font-style:normal;font-variant:normal;font-weight:normal;font-stretch:normal;letter-spacing:0.5px;fill:#ffffff;fill-opacity:1;font-family:Swis721 Md BT;-inkscape-font-specification:Swis721 Md BT"
         id="path6410" />
      <path
         inkscape:connector-curvature="0"
         d="m 165.61395,383.70213 7.81666,2.77514 2.15028,-6.05662 q 0.94343,-2.65732 0.42209,-4.14424 -0.52134,-1.48692 -2.60923,-2.22818 -2.03613,-0.72289 -3.35499,0.0913 -1.31273,0.79691 -2.23778,3.40246 l -2.18703,6.16016 z m -5.04826,2.89042 3.89011,-10.95714 q 0.17765,-0.5004 0.42658,-1.09208 0.0846,-0.18369 0.0969,-0.2182 1.19459,-3.36479 3.7493,-4.59512 2.56083,-1.24759 5.8566,-0.0775 2.15692,0.76577 3.35571,2.26004 1.19878,1.49427 1.253,3.47598 1.05176,-1.37532 2.37776,-1.66234 1.31488,-0.31039 3.79076,0.43261 l 3.72052,1.0683 0.0345,0.0122 q 2.41799,0.74188 3.27259,-0.0234 l 0.74198,0.26342 -1.67857,4.72797 q -0.59842,0.0984 -1.32651,0.0148 -0.73922,-0.107 -2.24769,-0.56483 l -3.08595,-0.94016 q -2.49926,-0.73187 -3.62882,-0.12252 -1.12344,0.59209 -1.87695,2.7145 l -0.28793,0.811 -1.98487,5.59072 10.45673,3.71245 -1.48866,4.19305 -25.4171,-9.02382 z"
         style="font-size:37.5px;font-style:normal;font-variant:normal;font-weight:normal;font-stretch:normal;letter-spacing:0.5px;fill:#ffffff;fill-opacity:1;font-family:Swis721 Md BT;-inkscape-font-specification:Swis721 Md BT"
         id="path6412" />
      <path
         inkscape:connector-curvature="0"
         d="m 169.7294,361.74096 9.06919,-19.0243 3.57016,1.70195 -3.56149,7.47088 20.77631,9.90442 -1.92257,4.03295 -20.77632,-9.90442 -3.58513,7.52047 -3.57015,-1.70195 z"
         style="font-size:37.5px;font-style:normal;font-variant:normal;font-weight:normal;font-stretch:normal;letter-spacing:0.5px;fill:#ffffff;fill-opacity:1;font-family:Swis721 Md BT;-inkscape-font-specification:Swis721 Md BT"
         id="path6414" />
      <path
         inkscape:connector-curvature="0"
         d="m 190.07499,332.4818 7.93583,9.487 4.15098,-6.86222 -12.08681,-2.62478 z m -5.18382,-0.20392 2.61569,-4.32414 28.20486,5.48388 -2.48301,4.1048 -7.22017,-1.54272 -5.4304,8.97728 4.74664,5.63185 -2.42614,4.0108 -18.00747,-22.34175 z"
         style="font-size:37.5px;font-style:normal;font-variant:normal;font-weight:normal;font-stretch:normal;letter-spacing:0.5px;fill:#ffffff;fill-opacity:1;font-family:Swis721 Md BT;-inkscape-font-specification:Swis721 Md BT"
         id="path6416" />
      <path
         inkscape:connector-curvature="0"
         d="m 193.89039,317.74915 12.64288,-16.86214 3.1644,2.3726 -4.96489,6.62179 18.41504,13.80721 -2.68016,3.5746 -18.41504,-13.80721 -4.99783,6.66575 -3.1644,-2.3726 z"
         style="font-size:37.5px;font-style:normal;font-variant:normal;font-weight:normal;font-stretch:normal;letter-spacing:0.5px;fill:#ffffff;fill-opacity:1;font-family:Swis721 Md BT;-inkscape-font-specification:Swis721 Md BT"
         id="path6418" />
      <path
         inkscape:connector-curvature="0"
         d="m 210.40226,296.54001 2.95177,-3.40245 20.3732,17.67458 -2.95177,3.40245 -20.3732,-17.67458 z"
         style="font-size:37.5px;font-style:normal;font-variant:normal;font-weight:normal;font-stretch:normal;letter-spacing:0.5px;fill:#ffffff;fill-opacity:1;font-family:Swis721 Md BT;-inkscape-font-specification:Swis721 Md BT"
         id="path6420" />
      <path
         inkscape:connector-curvature="0"
         d="m 229.77494,280.62251 q -2.83336,2.73317 -2.5338,6.23495 0.28685,3.48861 3.66835,6.99407 3.36879,3.49228 6.85753,3.91767 3.48874,0.42538 6.3221,-2.30779 2.82018,-2.72046 2.52062,-6.22224 -0.29956,-3.50179 -3.66835,-6.99407 -3.3815,-3.50546 -6.85753,-3.91766 -3.47556,-0.4381 -6.30892,2.29507 z m -2.70774,-2.807 q 4.32252,-4.16967 9.45742,-3.83121 5.12219,0.32529 9.71137,5.0827 4.58918,4.75741 4.74264,9.90117 0.14075,5.13057 -4.18177,9.30024 -4.3357,4.18239 -9.45789,3.8571 -5.12219,-0.32529 -9.72408,-5.09588 -4.6019,-4.77058 -4.74264,-9.90116 -0.14075,-5.13058 4.19495,-9.31296 z"
         style="font-size:37.5px;font-style:normal;font-variant:normal;font-weight:normal;font-stretch:normal;letter-spacing:0.5px;fill:#ffffff;fill-opacity:1;font-family:Swis721 Md BT;-inkscape-font-specification:Swis721 Md BT"
         id="path6422" />
      <path
         inkscape:connector-curvature="0"
         d="m 243.37175,263.97424 3.81406,-2.84915 22.13925,8.64834 -12.07602,-16.16572 3.47666,-2.59711 16.14153,21.60808 -3.78471,2.82724 -22.19793,-8.60452 12.07601,16.16572 -3.44731,2.5752 -16.14154,-21.60808 z"
         style="font-size:37.5px;font-style:normal;font-variant:normal;font-weight:normal;font-stretch:normal;letter-spacing:0.5px;fill:#ffffff;fill-opacity:1;font-family:Swis721 Md BT;-inkscape-font-specification:Swis721 Md BT"
         id="path6424" />
      <path
         inkscape:connector-curvature="0"
         d="m 278.95712,239.76131 16.29553,-8.54943 1.83749,3.50232 -12.38785,6.49927 3.36022,6.40471 10.8637,-5.69961 1.81196,3.45368 -10.86369,5.69962 5.52098,10.52318 -3.90769,2.05016 -12.53065,-23.8839 z"
         style="font-size:37.5px;font-style:normal;font-variant:normal;font-weight:normal;font-stretch:normal;letter-spacing:0.5px;fill:#ffffff;fill-opacity:1;font-family:Swis721 Md BT;-inkscape-font-specification:Swis721 Md BT"
         id="path6426" />
      <path
         inkscape:connector-curvature="0"
         d="m 307.23736,230.15775 3.04326,7.71623 5.9788,-2.35802 q 2.62318,-1.03457 3.40166,-2.40449 0.77848,-1.36993 -0.0344,-3.431 -0.79272,-2.00996 -2.273,-2.46936 -1.46324,-0.46611 -4.03532,0.54831 l -6.081,2.39833 z m -5.49573,-1.90692 10.81635,-4.26594 q 0.49397,-0.19482 1.10359,-0.39588 0.19409,-0.0569 0.22815,-0.0703 3.32156,-1.31001 5.92752,-0.19233 2.623,1.11097 3.90614,4.36439 0.83975,2.1292 0.5008,4.01469 -0.33894,1.88548 -1.79734,3.22831 1.72785,-0.11065 2.8154,0.70047 1.09786,0.78736 2.16433,3.14208 l 1.63894,3.50676 0.0134,0.0341 q 1.02929,2.31033 2.16768,2.45185 l 0.28887,0.73244 -4.66721,1.84074 q -0.46736,-0.38649 -0.88267,-0.99034 -0.40499,-0.6276 -1.05087,-2.06562 l -1.31864,-2.94417 q -1.09023,-2.36503 -2.29172,-2.81628 -1.18446,-0.45796 -3.2796,0.36836 l -0.80058,0.31574 -5.5189,2.17664 4.07112,10.32238 -4.13917,1.63247 -9.89563,-25.09053 z"
         style="font-size:37.5px;font-style:normal;font-variant:normal;font-weight:normal;font-stretch:normal;letter-spacing:0.5px;fill:#ffffff;fill-opacity:1;font-family:Swis721 Md BT;-inkscape-font-specification:Swis721 Md BT"
         id="path6428" />
      <path
         inkscape:connector-curvature="0"
         d="m 339.47722,219.96613 -0.84161,12.33986 7.74616,-2.0779 -6.90455,-10.26196 z m -3.59941,-3.73601 4.88114,-1.30937 16.55578,23.4839 -4.63355,1.24295 -4.14195,-6.11188 -10.13368,2.71836 -0.47391,7.35008 -4.52743,1.21449 2.4736,-28.58853 z"
         style="font-size:37.5px;font-style:normal;font-variant:normal;font-weight:normal;font-stretch:normal;letter-spacing:0.5px;fill:#ffffff;fill-opacity:1;font-family:Swis721 Md BT;-inkscape-font-specification:Swis721 Md BT"
         id="path6430" />
      <path
         inkscape:connector-curvature="0"
         d="m 356.68688,211.13752 4.71106,-0.68601 15.33755,18.15764 -2.90761,-19.96764 4.29431,-0.62532 3.88649,26.68995 -4.67482,0.68073 -15.41003,-18.14708 2.90761,19.96764 -4.25807,0.62004 -3.88649,-26.68995 z"
         style="font-size:37.5px;font-style:normal;font-variant:normal;font-weight:normal;font-stretch:normal;letter-spacing:0.5px;fill:#ffffff;fill-opacity:1;font-family:Swis721 Md BT;-inkscape-font-specification:Swis721 Md BT"
         id="path6432" />
      <path
         inkscape:connector-curvature="0"
         d="m 410.58931,215.16676 -4.43008,0.0973 q -0.41962,-2.42667 -2.24298,-3.7236 -1.80546,-1.31563 -4.69783,-1.25208 -3.8626,0.0849 -5.92859,2.74931 -2.04768,2.66403 -1.9427,7.44193 0.10579,4.81451 2.30835,7.53168 2.20255,2.71716 5.937,2.6351 2.9656,-0.0652 4.84953,-1.84648 1.90183,-1.80002 2.05835,-4.67891 l 4.39348,-0.0965 q -0.0642,4.58015 -3.25833,7.58073 -3.17623,2.98187 -8.13719,3.09088 -5.76643,0.12671 -9.18141,-3.58945 -3.39667,-3.71657 -3.54229,-10.34339 -0.14722,-6.70004 3.13865,-10.52681 3.28587,-3.82677 9.29028,-3.9587 4.86943,-0.107 7.88852,2.26255 3.0374,2.36915 3.49724,6.62644 z"
         style="font-size:37.5px;font-style:normal;font-variant:normal;font-weight:normal;font-stretch:normal;letter-spacing:0.5px;fill:#ffffff;fill-opacity:1;font-family:Swis721 Md BT;-inkscape-font-specification:Swis721 Md BT"
         id="path6434" />
      <path
         inkscape:connector-curvature="0"
         d="m 418.70864,207.11992 4.46344,0.45022 -1.06584,10.5665 12.69802,1.28084 1.06583,-10.5665 4.46344,0.45023 -2.70686,26.83526 -4.46344,-0.45023 1.23858,-12.27899 -12.69801,-1.28085 -1.23858,12.279 -4.46344,-0.45022 2.70686,-26.83526 z"
         style="font-size:37.5px;font-style:normal;font-variant:normal;font-weight:normal;font-stretch:normal;letter-spacing:0.5px;fill:#ffffff;fill-opacity:1;font-family:Swis721 Md BT;-inkscape-font-specification:Swis721 Md BT"
         id="path6436" />
      <path
         inkscape:connector-curvature="0"
         d="m 448.85987,210.90642 4.42619,0.83572 -5.00412,26.50315 -4.42618,-0.83572 5.00411,-26.50315 z"
         style="font-size:37.5px;font-style:normal;font-variant:normal;font-weight:normal;font-stretch:normal;letter-spacing:0.5px;fill:#ffffff;fill-opacity:1;font-family:Swis721 Md BT;-inkscape-font-specification:Swis721 Md BT"
         id="path6438" />
      <path
         inkscape:connector-curvature="0"
         d="m 478.15765,226.04113 -4.12075,-1.10525 q 0.46111,-2.24667 -0.73356,-3.92017 -1.17701,-1.66868 -3.73842,-2.36749 -2.11979,-0.57833 -3.73221,0.0446 -1.61242,0.62296 -2.01243,2.08915 -0.40483,1.48385 0.51847,2.76065 0.92812,1.25915 4.44334,3.26207 5.34591,3.01483 6.63208,5.18779 1.30382,2.17777 0.47489,5.21614 -1.00244,3.6743 -4.37023,5.16592 -3.34531,1.47877 -7.93819,0.22572 -4.84019,-1.32052 -6.90676,-4.38966 -2.04891,-3.06432 -1.04801,-7.49823 l 4.20425,1.14702 q -0.51252,2.57428 0.82024,4.43729 1.35043,1.86783 4.30047,2.67267 2.22578,0.60725 3.93296,-0.0848 1.72484,-0.68719 2.15377,-2.25937 0.16868,-0.61827 -0.0256,-1.50637 -0.17176,-0.90095 -0.63581,-1.63491 -0.76913,-1.21576 -4.06597,-3.04523 -0.70657,-0.40155 -1.07111,-0.5959 -4.04997,-2.33861 -5.36985,-4.59668 -1.31506,-2.27574 -0.4813,-5.33177 0.88677,-3.25035 4.07307,-4.56372 3.20879,-1.32622 7.58969,-0.13101 4.25725,1.16148 6.17127,4.0941 1.9365,2.91978 0.93566,6.72737 z"
         style="font-size:37.5px;font-style:normal;font-variant:normal;font-weight:normal;font-stretch:normal;letter-spacing:0.5px;fill:#ffffff;fill-opacity:1;font-family:Swis721 Md BT;-inkscape-font-specification:Swis721 Md BT"
         id="path6440" />
      <path
         inkscape:connector-curvature="0"
         d="m 487.80085,221.15524 4.23748,1.52753 -9.14655,25.3732 -4.23748,-1.52753 9.14655,-25.3732 z"
         style="font-size:37.5px;font-style:normal;font-variant:normal;font-weight:normal;font-stretch:normal;letter-spacing:0.5px;fill:#ffffff;fill-opacity:1;font-family:Swis721 Md BT;-inkscape-font-specification:Swis721 Md BT"
         id="path6442" />
      <path
         inkscape:connector-curvature="0"
         d="m 500.20607,225.6314 4.32403,1.99184 2.96646,23.58263 8.44233,-18.32724 3.94152,1.81564 -11.28453,24.4973 -4.29077,-1.97652 -3.03298,-23.61327 -8.44234,18.32723 -3.90825,-1.80031 11.28453,-24.4973 z"
         style="font-size:37.5px;font-style:normal;font-variant:normal;font-weight:normal;font-stretch:normal;letter-spacing:0.5px;fill:#ffffff;fill-opacity:1;font-family:Swis721 Md BT;-inkscape-font-specification:Swis721 Md BT"
         id="path6444" />
      <path
         inkscape:connector-curvature="0"
         d="m 543.74214,258.5319 -3.77598,-2.35366 q 0.83375,-2.30681 0.002,-4.40006 -0.80607,-2.09909 -3.10584,-3.5326 -3.43413,-2.14056 -6.7537,-1.038 -3.30989,1.08703 -5.88632,5.22041 -2.528,4.05568 -2.06957,7.57789 0.45842,3.52221 3.76823,5.58529 2.81256,1.75313 5.63774,1.09757 2.84073,-0.64587 4.77043,-3.4994 l -6.26222,-3.90339 1.96622,-3.15442 9.77404,6.09238 -7.70023,12.35352 -2.51732,-1.5691 1.16447,-3.28738 q -2.34933,0.93059 -4.71949,0.68308 -2.37015,-0.24752 -4.65439,-1.67134 -4.7394,-2.95417 -5.62873,-8.10429 -0.86411,-5.15597 2.49687,-10.54801 3.42878,-5.50081 8.44044,-6.92955 5.01166,-1.42874 9.96861,1.66104 4.13338,2.57643 5.47892,6.19849 1.34555,3.62207 -0.39463,7.52153 z"
         style="font-size:37.5px;font-style:normal;font-variant:normal;font-weight:normal;font-stretch:normal;letter-spacing:0.5px;fill:#ffffff;fill-opacity:1;font-family:Swis721 Md BT;-inkscape-font-specification:Swis721 Md BT"
         id="path6446" />
      <path
         inkscape:connector-curvature="0"
         d="m 565.22928,277.68873 q 1.8611,0.33218 3.12939,0.0635 1.26829,-0.26868 2.08367,-1.1853 0.85189,-0.95767 0.80362,-2.00539 -0.0483,-1.04772 -0.97858,-1.87527 -1.02607,-0.91274 -2.0753,-0.89032 -1.04923,0.0224 -1.86461,0.93905 -0.63284,0.71141 -0.90392,1.84264 -0.24524,1.12972 -0.19427,3.11109 z m -4.3638,11.43489 0.38195,-8.9973 q -2.36285,-0.48442 -3.88964,-0.20063 -1.50095,0.28228 -2.48671,1.39044 -1.29001,1.45018 -1.18726,3.20804 0.10276,1.75786 1.5803,3.07221 1.05344,0.93709 2.49027,1.33298 1.449,0.3822 3.11109,0.19426 z m 4.30786,-8.17624 -0.2946,7.16347 q 1.02958,-0.35848 1.97868,-0.98462 0.96126,-0.63982 1.90589,-1.564 l 2.88669,2.56785 q -1.50747,1.5018 -3.23981,2.485 -1.70648,0.98168 -3.67736,1.4341 l -0.28116,7.83711 -3.92644,-3.49277 0.16404,-3.62811 q -2.37224,0.24242 -4.50235,-0.47609 -2.10425,-0.72002 -4.00591,-2.41164 -2.57203,-2.28794 -2.75789,-5.4676 -0.17218,-3.16749 2.11576,-5.73952 1.65511,-1.86061 3.9362,-2.33116 2.28108,-0.47055 5.94546,0.31392 0.0648,-2.44208 0.47585,-3.84088 0.42476,-1.38664 1.3375,-2.41272 1.82549,-2.05215 4.33756,-2.12117 2.52575,-0.0568 4.75575,1.92685 2.25736,2.00803 2.49827,4.35442 0.26677,2.34488 -1.53438,4.36966 -1.3752,1.54595 -3.3689,2.05158 -1.98154,0.49195 -4.74885,-0.0337 z"
         style="font-size:37.5px;font-style:normal;font-variant:normal;font-weight:normal;font-stretch:normal;letter-spacing:0.5px;fill:#ffffff;fill-opacity:1;font-family:Swis721 Md BT;-inkscape-font-specification:Swis721 Md BT"
         id="path6448" />
      <path
         inkscape:connector-curvature="0"
         d="m 595.13986,299.39603 -6.44266,5.22435 4.048,4.992 q 1.77605,2.19022 3.31674,2.52033 1.5407,0.33012 3.26159,-1.06534 1.67822,-1.36087 1.67083,-2.91077 0.004,-1.53568 -1.7373,-3.68324 l -4.1172,-5.07733 z m 0.1646,-5.81483 7.32331,9.0311 q 0.33445,0.41244 0.70965,0.93329 0.11264,0.16797 0.13571,0.19642 2.24889,2.77333 1.96727,5.59484 -0.27008,2.83574 -2.98652,5.0385 -1.77778,1.4416 -3.67786,1.68579 -1.90008,0.2442 -3.61955,-0.74247 0.6255,1.61445 0.17928,2.89568 -0.42046,1.28393 -2.34507,3.0096 l -2.85096,2.61831 -0.0284,0.0231 q -1.89347,1.67686 -1.68583,2.80506 l -0.61156,0.49591 -3.15998,-3.89688 q 0.22792,-0.56201 0.67879,-1.13979 0.47663,-0.57509 1.65361,-1.62379 l 2.41084,-2.14355 q 1.9273,-1.75143 1.99604,-3.03303 0.0803,-1.26737 -1.33826,-3.0167 l -0.54204,-0.66844 -3.73662,-4.608 -8.61866,6.98886 -2.80247,-3.45599 20.94932,-16.98778 z"
         style="font-size:37.5px;font-style:normal;font-variant:normal;font-weight:normal;font-stretch:normal;letter-spacing:0.5px;fill:#ffffff;fill-opacity:1;font-family:Swis721 Md BT;-inkscape-font-specification:Swis721 Md BT"
         id="path6450" />
      <path
         inkscape:connector-curvature="0"
         d="m 613.26586,316.61129 10.43969,16.27548 -3.32908,2.13539 -8.05715,-12.56109 -5.93377,3.80613 7.43433,11.59012 -3.17496,2.03653 -7.43432,-11.59012 -6.85851,4.3993 8.32407,12.97724 -3.40614,2.18482 -10.70661,-16.69162 22.70245,-14.56218 z"
         style="font-size:37.5px;font-style:normal;font-variant:normal;font-weight:normal;font-stretch:normal;letter-spacing:0.5px;fill:#ffffff;fill-opacity:1;font-family:Swis721 Md BT;-inkscape-font-specification:Swis721 Md BT"
         id="path6452" />
      <path
         inkscape:connector-curvature="0"
         d="m 630.68934,364.79043 -1.94585,-4.00142 q 1.93293,-1.51007 2.34225,-3.72484 0.4338,-2.2063 -0.75133,-4.64338 -1.76968,-3.63916 -5.16722,-4.47098 -3.38108,-0.83984 -7.76124,1.29018 -4.29782,2.08999 -5.7829,5.31654 -1.48508,3.22656 0.22054,6.73398 1.44938,2.98048 4.19051,3.92791 2.74913,0.96389 5.90094,-0.42627 l -3.22707,-6.63611 3.34276,-1.62554 5.03678,10.35759 -13.09108,6.36605 -1.29723,-2.66762 2.73451,-2.16455 q -2.48444,-0.46143 -4.35993,-1.93161 -1.8755,-1.47018 -3.05262,-3.89079 -2.44232,-5.02236 -0.45634,-9.85667 2.01045,-4.82585 7.72442,-7.60449 5.82923,-2.83469 10.83317,-1.37914 5.00394,1.45555 7.55837,6.70844 2.13002,4.38016 1.34308,8.16309 -0.78694,3.78294 -4.33452,6.15963 z"
         style="font-size:37.5px;font-style:normal;font-variant:normal;font-weight:normal;font-stretch:normal;letter-spacing:0.5px;fill:#ffffff;fill-opacity:1;font-family:Swis721 Md BT;-inkscape-font-specification:Swis721 Md BT"
         id="path6454" />
      <path
         inkscape:connector-curvature="0"
         d="m 641.59752,369.78634 1.45981,4.26128 -15.86721,5.43573 q -3.30855,1.13343 -4.39827,3.09387 -1.08973,1.96044 -0.069,4.93988 1.02662,2.99675 3.08955,3.87716 2.08619,0.89181 5.37742,-0.23569 l 15.86721,-5.43574 1.45981,4.26128 -16.10972,5.51882 q -4.85024,1.66157 -8.38522,-0.0694 -3.53499,-1.73099 -5.19656,-6.58123 -1.70312,-4.97149 -0.035,-8.40752 1.69137,-3.42463 6.69751,-5.13962 l 16.10972,-5.51881 z"
         style="font-size:37.5px;font-style:normal;font-variant:normal;font-weight:normal;font-stretch:normal;letter-spacing:0.5px;fill:#ffffff;fill-opacity:1;font-family:Swis721 Md BT;-inkscape-font-specification:Swis721 Md BT"
         id="path6456" />
      <path
         inkscape:connector-curvature="0"
         d="m 650.79436,398.56532 1.00368,4.37236 -22.30799,5.12081 2.97827,12.97433 -3.97975,0.91355 -3.98194,-17.34669 26.28773,-6.03436 z"
         style="font-size:37.5px;font-style:normal;font-variant:normal;font-weight:normal;font-stretch:normal;letter-spacing:0.5px;fill:#ffffff;fill-opacity:1;font-family:Swis721 Md BT;-inkscape-font-specification:Swis721 Md BT"
         id="path6458" />
      <path
         inkscape:connector-curvature="0"
         d="m 652.49643,431.95931 -12.1131,-2.50066 1.01258,7.95584 11.10052,-5.45518 z m 4.18795,-3.06181 0.63807,5.01327 -25.5049,13.23207 -0.6057,-4.75898 6.61533,-3.27846 -1.32468,-10.40798 -7.21872,-1.46235 -0.59182,-4.64999 27.99242,6.31242 z"
         style="font-size:37.5px;font-style:normal;font-variant:normal;font-weight:normal;font-stretch:normal;letter-spacing:0.5px;fill:#ffffff;fill-opacity:1;font-family:Swis721 Md BT;-inkscape-font-specification:Swis721 Md BT"
         id="path6460" />
      <path
         inkscape:connector-curvature="0"
         d="m 658.64704,445.89514 0.55811,21.06804 -3.95369,0.10474 -0.21918,-8.27346 -23.00828,0.60951 -0.11832,-4.46621 23.00829,-0.60951 -0.22063,-8.32838 3.9537,-0.10473 z"
         style="font-size:37.5px;font-style:normal;font-variant:normal;font-weight:normal;font-stretch:normal;letter-spacing:0.5px;fill:#ffffff;fill-opacity:1;font-family:Swis721 Md BT;-inkscape-font-specification:Swis721 Md BT"
         id="path6462" />
      <path
         inkscape:connector-curvature="0"
         d="m 654.90433,485.22187 q 0.33359,-3.92261 -2.19714,-6.36139 -2.51248,-2.43724 -7.36556,-2.84995 -4.83485,-0.41116 -7.74104,1.56527 -2.9062,1.97643 -3.23978,5.89904 -0.33203,3.90436 2.19869,6.34315 2.53073,2.43879 7.36557,2.84995 4.85309,0.41271 7.74104,-1.56527 2.90464,-1.95819 3.23822,-5.8808 z m 3.88612,0.33048 q -0.5089,5.98426 -4.59704,9.10979 -4.06989,3.12708 -10.65623,2.56697 -6.58633,-0.56011 -10.08799,-4.33107 -3.48341,-3.76942 -2.9745,-9.75368 0.51046,-6.0025 4.58035,-9.12958 4.06989,-3.12708 10.67447,-2.56542 6.60458,0.56165 10.08799,4.33107 3.48341,3.76942 2.97295,9.77192 z"
         style="font-size:37.5px;font-style:normal;font-variant:normal;font-weight:normal;font-stretch:normal;letter-spacing:0.5px;fill:#ffffff;fill-opacity:1;font-family:Swis721 Md BT;-inkscape-font-specification:Swis721 Md BT"
         id="path6464" />
      <path
         inkscape:connector-curvature="0"
         d="m 651.0099,510.11325 -8.1197,-1.69473 -1.31313,6.29143 q -0.57613,2.76034 0.14112,4.16328 0.71726,1.40295 2.8861,1.85563 2.11507,0.44145 3.31197,-0.54327 1.19316,-0.9668 1.75807,-3.67337 l 1.33557,-6.39897 z m 4.61194,-3.54535 -2.37561,11.38193 q -0.10849,0.5198 -0.27528,1.13967 -0.0591,0.19343 -0.0666,0.22928 -0.72952,3.49523 -3.09479,5.05912 -2.36901,1.58182 -5.79255,0.86726 -2.24053,-0.46764 -3.63003,-1.78643 -1.3895,-1.3188 -1.7107,-3.27506 -0.8565,1.5047 -2.13164,1.96805 -1.26095,0.48503 -3.81446,0.083 l -3.83066,-0.55636 -0.0358,-0.007 q -2.496,-0.40873 -3.23949,0.46487 l -0.77074,-0.16087 1.02506,-4.91125 q 0.57967,-0.1783 1.31238,-0.19371 0.74691,0.006 2.30336,0.25629 l 3.1846,0.51504 q 2.57518,0.38784 3.61216,-0.36839 1.03324,-0.7383 1.4934,-2.94299 l 0.17583,-0.84244 1.21212,-5.80747 -10.86212,-2.26712 0.90909,-4.3556 26.40248,5.51066 z"
         style="font-size:37.5px;font-style:normal;font-variant:normal;font-weight:normal;font-stretch:normal;letter-spacing:0.5px;fill:#ffffff;fill-opacity:1;font-family:Swis721 Md BT;-inkscape-font-specification:Swis721 Md BT"
         id="path6466" />
      <path
         inkscape:connector-curvature="0"
         d="m 650.13535,531.81576 -1.71365,5.29607 -13.70157,2.49486 9.71057,9.83939 -1.59527,4.93022 -12.67002,-13.83773 -10.13918,-3.28074 1.38671,-4.28563 9.94754,3.21873 18.77487,-4.37517 z"
         style="font-size:37.5px;font-style:normal;font-variant:normal;font-weight:normal;font-stretch:normal;letter-spacing:0.5px;fill:#ffffff;fill-opacity:1;font-family:Swis721 Md BT;-inkscape-font-specification:Swis721 Md BT"
         id="path6468" />
      <path
         inkscape:connector-curvature="0"
         d="m 620.79674,568.35502 -7.47221,-3.76672 -3.17328,6.29496 q -1.17041,2.32178 -0.81538,3.93613 0.36312,1.63894 2.27614,2.60329 1.89666,0.95611 3.3648,0.2403 1.48448,-0.70756 2.76204,-3.2419 l 3.05789,-6.06606 z m 9.71223,4.89592 -6.44212,-3.24746 -2.86832,5.69 q -1.13744,2.25637 -0.83917,3.69857 0.29002,1.45855 2.03953,2.34048 1.53695,0.77477 2.81658,0.10748 1.28774,-0.64269 2.351,-2.75192 l 2.9425,-5.83715 z m 5.32177,-2.21811 -5.25034,10.41531 q -1.90397,3.77697 -4.36419,4.87441 -2.46847,1.11378 -5.52602,-0.42753 -1.71681,-0.86544 -2.61261,-2.3833 -0.90403,-1.5015 -0.75882,-3.33531 -1.63539,1.7798 -3.65904,2.09254 -2.0319,0.32908 -4.33732,-0.83308 -3.28647,-1.6567 -4.0784,-4.88567 -0.78382,-3.20437 1.18609,-7.11216 l 5.31628,-10.54611 24.08437,12.1409 z"
         style="font-size:37.5px;font-style:normal;font-variant:normal;font-weight:normal;font-stretch:normal;letter-spacing:0.5px;fill:#ffffff;fill-opacity:1;font-family:Swis721 Md BT;-inkscape-font-specification:Swis721 Md BT"
         id="path6470" />
      <path
         inkscape:connector-curvature="0"
         d="m 613.05191,604.9755 q 2.18349,-3.27575 1.14216,-6.63252 -1.02609,-3.34661 -5.07888,-6.04804 -4.03755,-2.69127 -7.53657,-2.36091 -3.49901,0.33036 -5.6825,3.60611 -2.17332,3.26051 -1.132,6.61728 1.04133,3.35677 5.07888,6.04804 4.05279,2.70142 7.53657,2.36091 3.48886,-0.31512 5.67234,-3.59087 z m 3.24528,2.16317 q -3.33108,4.99742 -8.41961,5.76464 -5.0733,0.77738 -10.57351,-2.88884 -5.50021,-3.66622 -6.74988,-8.65823 -1.23443,-4.98185 2.09665,-9.97927 3.34124,-5.01266 8.41454,-5.79004 5.07329,-0.77737 10.58874,2.899 5.51545,3.67638 6.74988,8.65823 1.23443,4.98185 -2.10681,9.99451 z"
         style="font-size:37.5px;font-style:normal;font-variant:normal;font-weight:normal;font-stretch:normal;letter-spacing:0.5px;fill:#ffffff;fill-opacity:1;font-family:Swis721 Md BT;-inkscape-font-specification:Swis721 Md BT"
         id="path6472" />
      <path
         inkscape:connector-curvature="0"
         d="m 593.7964,628.2121 -6.28295,-10.65387 -5.21421,6.09365 11.49716,4.56022 z m 5.08122,1.04634 -3.28567,3.83983 -26.93344,-10.00884 3.11901,-3.64507 6.87205,2.69921 6.82134,-7.97183 -3.76495,-6.33037 3.04758,-3.56158 14.12408,24.97865 z"
         style="font-size:37.5px;font-style:normal;font-variant:normal;font-weight:normal;font-stretch:normal;letter-spacing:0.5px;fill:#ffffff;fill-opacity:1;font-family:Swis721 Md BT;-inkscape-font-specification:Swis721 Md BT"
         id="path6474" />
      <path
         inkscape:connector-curvature="0"
         d="m 578.85516,645.34605 -5.65662,-6.06666 -4.70065,4.38295 q -2.0624,1.923 -2.28538,3.48281 -0.22297,1.5598 1.28796,3.18026 1.47347,1.58027 3.01916,1.46592 1.53231,-0.10188 3.55452,-1.98742 l 4.78101,-4.45786 z m 5.81233,-0.2372 -8.50403,7.92926 q -0.38837,0.36213 -0.88207,0.77239 -0.15981,0.12396 -0.18659,0.14894 -2.61147,2.43497 -5.4457,2.34879 -2.84762,-0.0737 -5.23264,-2.63159 -1.56088,-1.67402 -1.93565,-3.55271 -0.37478,-1.87869 0.49084,-3.66217 -1.56742,0.73545 -2.8764,0.37874 -1.30988,-0.33083 -3.1643,-2.13172 l -2.80886,-2.66342 -0.025,-0.0268 q -1.80356,-1.7732 -2.91474,-1.48818 l -0.53695,-0.57586 3.66946,-3.42145 q 0.5764,0.18858 1.18392,0.5985 0.60662,0.43579 1.73407,1.53757 l 2.30486,2.25712 q 1.88029,1.80179 3.16358,1.7819 1.26989,-0.007 2.91712,-1.54331 l 0.62944,-0.58689 4.33906,-4.0458 -7.56714,-8.11565 3.2543,-3.03435 18.39339,19.72667 z"
         style="font-size:37.5px;font-style:normal;font-variant:normal;font-weight:normal;font-stretch:normal;letter-spacing:0.5px;fill:#ffffff;fill-opacity:1;font-family:Swis721 Md BT;-inkscape-font-specification:Swis721 Md BT"
         id="path6476" />
      <path
         inkscape:connector-curvature="0"
         d="m 556.27704,665.1549 -10.59973,-15.97431 -4.59242,3.0473 q -3.34133,2.21714 -3.58659,5.25859 -0.26052,3.05159 2.52355,7.24732 2.53098,3.8143 5.43384,4.74485 2.90286,0.93056 5.96956,-1.10435 l 4.85179,-3.2194 z m 5.79289,0.74889 -8.68136,5.76051 q -4.94333,3.28014 -9.2778,2.11289 -4.3396,-1.14187 -8.03483,-6.71076 -3.61424,-5.44682 -2.84224,-10.17826 0.77199,-4.73144 5.8679,-8.11283 l 8.05581,-5.34542 14.91252,22.47387 z"
         style="font-size:37.5px;font-style:normal;font-variant:normal;font-weight:normal;font-stretch:normal;letter-spacing:0.5px;fill:#ffffff;fill-opacity:1;font-family:Swis721 Md BT;-inkscape-font-specification:Swis721 Md BT"
         id="path6478" />
    </g>
    <path
       inkscape:connector-curvature="0"
       style="fill:none;stroke:none"
       d="m 546.93707,975.71399 a 214.4643,211.67514 0 0 0 116.7316,-1.87703"
       id="path6228" />
    <g
       style="font-size:40px;font-style:normal;font-variant:normal;font-weight:bold;font-stretch:normal;text-align:start;line-height:125%;letter-spacing:7px;word-spacing:0px;writing-mode:lr-tb;text-anchor:start;fill:#ffffff;fill-opacity:1;stroke:none;font-family:Swis721 BT;-inkscape-font-specification:'Swis721 BT, Bold'"
       id="text6230"
       transform="matrix(0.84037712,0,0,0.82209783,266.15775,382.90859)">
      <path
         inkscape:connector-curvature="0"
         d="m 352.08101,719.98212 4.67808,0.80061 q 4.06203,0.69518 6.23408,-1.11276 2.19459,-1.82391 3.01168,-6.59824 0.81379,-4.75509 -0.49814,-7.27818 -1.31194,-2.52309 -4.91194,-3.1392 l -5.39038,-0.92251 -3.12338,18.25028 z m -6.59404,4.14233 4.8531,-28.35724 11.10803,1.90104 q 6.52621,1.11691 9.119,5.18682 2.61205,4.07322 1.38642,11.23472 -0.66553,3.88878 -2.3665,6.64921 -1.68172,2.76373 -4.24383,4.18788 -1.92475,1.05766 -4.18304,1.28545 -2.25499,0.20853 -6.14376,-0.457 l -9.52942,-1.63088 z"
         style="font-size:40px;letter-spacing:7px;word-spacing:0px;fill:#ffffff;fill-opacity:1"
         id="path6380" />
      <path
         inkscape:connector-curvature="0"
         d="m 386.2824,715.11089 q -0.10452,4.74494 1.94628,7.42747 2.05122,2.66301 5.83937,2.74645 3.82719,0.0843 6.01322,-2.48536 2.18646,-2.58919 2.29098,-7.33414 0.10452,-4.74494 -1.96623,-7.40838 -2.07033,-2.68296 -5.89752,-2.76726 -3.78815,-0.0834 -5.95465,2.48665 -2.1665,2.5701 -2.27145,7.33457 z m -6.03369,-0.13291 q 0.15356,-6.97097 4.0316,-10.96856 3.89799,-4.0167 10.34174,-3.87475 6.44375,0.14194 10.16109,4.32638 3.73687,4.18487 3.58375,11.13631 -0.15313,6.95144 -4.07065,10.9677 -3.898,4.0167 -10.34175,3.87475 -6.44375,-0.14194 -10.16109,-4.32638 -3.69782,-4.18401 -3.54469,-11.13545 z"
         style="font-size:40px;letter-spacing:7px;word-spacing:0px;fill:#ffffff;fill-opacity:1"
         id="path6382" />
      <path
         inkscape:connector-curvature="0"
         d="m 425.65279,728.36064 -2.63127,-23.48588 -8.48209,0.95031 -0.57192,-5.10478 22.78712,-2.55299 0.57192,5.10478 -8.42386,0.94378 2.63127,23.48587 -5.88117,0.65891 z"
         style="font-size:40px;letter-spacing:7px;word-spacing:0px;fill:#ffffff;fill-opacity:1"
         id="path6384" />
      <path
         inkscape:connector-curvature="0"
         d="m 446.31013,725.41856 -4.42077,-20.76511 5.15785,-1.09807 0.75645,3.55318 q 0.63338,-2.37137 1.87374,-3.67382 1.23629,-1.32155 3.24211,-1.74858 0.32476,-0.0691 0.50075,-0.0866 0.19103,-0.0407 0.30972,-0.046 l 1.21885,5.63136 -1.853,0.39449 q -2.27327,0.48397 -3.16731,1.91238 -0.89404,1.42841 -0.39787,3.75899 l 2.33849,10.98431 -5.55901,1.18348 z"
         style="font-size:40px;letter-spacing:7px;word-spacing:0px;fill:#ffffff;fill-opacity:1"
         id="path6386" />
    </g>
    <path
       inkscape:connector-curvature="0"
       style="fill:#ffffff;fill-opacity:1;stroke:none"
       inkscape:transform-center-x="-0.70176383"
       inkscape:transform-center-y="1.3579699"
       d="m 540.3647,955.12392 -12.62219,1.71146 -3.01122,12.11264 -5.56435,-11.21442 -12.70646,0.94147 9.18321,-8.64237 -4.84181,-11.53078 11.2399,5.87316 9.71406,-8.06789 -2.23657,12.27217 z"
       id="path6239" />
    <path
       inkscape:connector-curvature="0"
       style="fill:#ffffff;fill-opacity:1;stroke:none"
       inkscape:transform-center-x="0.70175749"
       inkscape:transform-center-y="1.3579649"
       d="m 668.64574,956.32801 12.62219,1.71148 3.01122,12.11262 5.56437,-11.21442 12.70646,0.94147 -9.18323,-8.64237 4.84181,-11.53078 -11.2399,5.87316 -9.71406,-8.06789 2.23657,12.27217 z"
       id="path6239-1" />
    <path
       sodipodi:type="arc"
       style="opacity:0.98000004;color:#000000;fill:#fcd116;fill-opacity:1;fill-rule:nonzero;stroke:none;stroke-width:1.5;marker:none;visibility:visible;display:inline;overflow:visible;enable-background:accumulate"
       id="path3067"
       sodipodi:cx="-164.1498"
       sodipodi:cy="209.27911"
       sodipodi:rx="18.687822"
       sodipodi:ry="23.233509"
       d="m -145.46197,209.27911 a 18.687822,23.233509 0 1 1 -37.37565,0 18.687822,23.233509 0 1 1 37.37565,0 z"
       transform="matrix(2.0066544,0,0,1.614048,934.70185,429.33952)" />
    <path
       style="fill:#fcd116;stroke:#fcd116;stroke-width:25;stroke-linecap:round;stroke-linejoin:miter;stroke-miterlimit:4;stroke-opacity:1;stroke-dasharray:none;fill-opacity:1"
       d="M 605.61009,878.10925 606.21037,764.4836"
       id="path3148-0-5"
       inkscape:connector-curvature="0"
       sodipodi:nodetypes="cc" />
    <path
       style="fill:#fcd116;fill-opacity:1;stroke:#fcd116;stroke-width:25;stroke-linecap:round;stroke-linejoin:miter;stroke-miterlimit:4;stroke-opacity:1;stroke-dasharray:none"
       d="M 606.20835,764.86543 502.96503,715.03176"
       id="path3148-0-5-6-0"
       inkscape:connector-curvature="0"
       sodipodi:nodetypes="cc" />
    <path
       style="fill:#fcd116;fill-opacity:1;stroke:#fcd116;stroke-width:25;stroke-linecap:round;stroke-linejoin:miter;stroke-miterlimit:4;stroke-opacity:1;stroke-dasharray:none"
       d="M 605.40491,764.47762 708.64823,714.64395"
       id="path3148-0-5-6-0-4"
       inkscape:connector-curvature="0"
       sodipodi:nodetypes="cc" />
    <g
       transform="matrix(0.83438243,0,0,0.82800428,266.75397,384.94759)"
       style="font-size:81.91149902px;font-style:normal;font-variant:normal;font-weight:bold;font-stretch:normal;text-align:start;line-height:125%;letter-spacing:-0.99286664px;word-spacing:0px;writing-mode:lr-tb;text-anchor:start;fill:#0038a8;fill-opacity:1;stroke:none;font-family:Swis721 BT;-inkscape-font-specification:'Swis721 BT, Bold'"
       id="text6256">
      <path
         inkscape:connector-curvature="0"
         d="m 282.62331,496.20343 0,-58.91389 12.11875,0 0,48.03502 28.75701,0 0,10.87887 -40.87576,0 z"
         style="font-size:81.91149902px;letter-spacing:1.98573327px;fill:#0038a8;fill-opacity:1"
         id="path6367" />
      <path
         inkscape:connector-curvature="0"
         d="m 337.60355,496.20343 0,-48.39498 -17.47819,0 0,-10.51891 46.95513,0 0,10.51891 -17.3582,0 0,48.39498 -12.11874,0 z"
         style="font-size:81.91149902px;letter-spacing:1.98573327px;fill:#0038a8;fill-opacity:1"
         id="path6369" />
      <path
         inkscape:connector-curvature="0"
         d="m 376.02551,496.20343 0,-58.91389 41.11573,0 0,10.23894 -29.15698,0 0,13.35862 25.55735,0 0,10.23893 -25.55735,0 0,25.0774 -11.95875,0 z"
         style="font-size:81.91149902px;letter-spacing:1.98573327px;fill:#0038a8;fill-opacity:1"
         id="path6371" />
      <path
         inkscape:connector-curvature="0"
         d="m 439.08489,463.04687 14.23852,0 q 4.63952,0 6.7993,-1.8798 2.19977,-1.87981 2.19977,-5.91939 0,-3.8396 -2.11978,-5.7994 -2.11978,-1.99979 -6.31934,-1.99979 l -14.79847,0 0,15.59838 z m -12.11874,33.15656 0,-58.91389 28.55704,0 q 9.63899,0 14.27851,4.11958 4.63952,4.11957 4.63952,12.59869 0,5.39944 -2.27976,8.99907 -2.23977,3.59962 -6.47933,4.91948 3.8396,1.35986 5.43944,4.15957 1.63983,2.79971 1.8798,8.7191 l 0.23998,6.95928 q 0,0.08 0,0.23997 0.11998,5.27945 2.27976,6.39934 l 0,1.79981 -13.27862,0 q -0.63994,-1.23987 -0.9999,-3.03968 -0.31997,-1.83981 -0.39996,-4.35955 l -0.15998,-6.19936 q -0.19998,-5.47943 -2.07978,-7.39923 -1.83981,-1.9198 -6.67931,-1.9198 l -12.83867,0 0,22.91762 -12.11874,0 z"
         style="font-size:81.91149902px;letter-spacing:1.98573327px;fill:#0038a8;fill-opacity:1"
         id="path6373" />
      <path
         inkscape:connector-curvature="0"
         d="m 499.1046,485.56453 14.35851,0 q 5.07948,0 7.39923,-1.8398 2.31976,-1.83981 2.31976,-5.7994 0,-4.11958 -2.27976,-5.91939 -2.27976,-1.83981 -7.51922,-1.83981 l -14.27852,0 0,15.3984 z m 0,-25.47735 13.83857,0 q 4.47953,0 6.55932,-1.51984 2.07978,-1.55984 2.07978,-4.8795 0,-3.23966 -2.03979,-4.67951 -1.99979,-1.47985 -6.67931,-1.47985 l -13.75857,0 0,12.5587 z m -11.59879,36.11625 0,-58.91389 27.75712,0 q 9.03906,0 13.75857,3.83961 4.7595,3.7996 4.7595,11.07885 0,4.47953 -1.75981,7.47922 -1.75982,2.99969 -5.27946,4.63952 4.55953,1.83981 6.7993,5.31945 2.27976,3.43964 2.27976,8.5991 0,8.59911 -5.59942,13.27863 -5.59942,4.67951 -15.87835,4.67951 l -26.83721,0 z"
         style="font-size:81.91149902px;letter-spacing:1.98573327px;fill:#0038a8;fill-opacity:1"
         id="path6375" />
    </g>
  </g>
</svg>
